<?xml version="1.0" encoding="iso-8859-1"?>
<!-- Generator: Adobe Illustrator 19.0.0, SVG Export Plug-In . SVG Version: 6.00 Build 0)  -->
<svg version="1.1" id="Capa_1" xmlns="http://www.w3.org/2000/svg" xmlns:xlink="http://www.w3.org/1999/xlink" x="0px" y="0px"
	 viewBox="0 0 384.8 384.8" style="enable-background:new 0 0 384.8 384.8;" xml:space="preserve">
<polygon style="fill:#C8CDD1;" points="234.4,51.349 149.6,51.349 149.6,77.749 177.6,77.749 177.6,168.949 206.4,168.949 
	206.4,77.749 234.4,77.749 "/>
<rect x="149.6" y="51.349" style="fill:#DFE2E5;" width="85.6" height="13.6"/>
<polygon style="fill:#ADB0B2;" points="177.6,294.549 192,332.949 206.4,294.549 206.4,244.949 177.6,244.949 "/>
<g>
	<path style="fill:#EDAE78;" d="M361.6,180.949c-7.2,12-17.6,21.6-29.6,28c12-7.2,24.8-16.8,30.4-28.8l4.8-11.2H176l-4,10.4
		c-3.2,8-8.8,14.4-15.2,19.2l-0.8,0.8l-4,3.2l-1.6,0.8l-3.2,2.4l-3.2,2.4l-2.4,1.6l-5.6,2.4l-0.8,0.8l-4.8,3.2l-2.4,0.8l-3.2,2.4
		l-3.2,2.4l-0.8,0.8c-0.8,0.8-2.4,1.6-3.2,3.2c-0.8,0.8-1.6,1.6-1.6,3.2v0.8c0,0.8-0.8,1.6-0.8,2.4v0.8c0,0.8,0,1.6,0,2.4
		s0,0.8,0,1.6c0,0.8,0,1.6,0,2.4l0.8,7.2h93.6l-0.8-8.8v-0.8c0,0.8,0,1.6,0,2.4l0.8,7.2H304l-0.8-8.8v-0.8c0,0.8,0,1.6,0,2.4
		l0.8,7.2h61.6c4.8,0,8.8-4,8.8-8.8v-51.2L361.6,180.949z M217.6,220.949l-1.6,0.8L217.6,220.949z M230.4,212.949l-4.8,3.2
		L230.4,212.949z M224,216.949l-4,2.4L224,216.949z M210.4,234.549c0-0.8,0-1.6,0-2.4C210.4,232.949,210.4,233.749,210.4,234.549
		L210.4,234.549z M210.4,231.349c0-0.8,0.8-1.6,0.8-2.4C211.2,229.749,211.2,230.549,210.4,231.349L210.4,231.349z M213.6,225.749
		c-0.8,0.8-1.6,1.6-1.6,2.4C212,227.349,212.8,226.549,213.6,225.749L213.6,225.749z M252,198.549c6.4-4.8,11.2-11.2,14.4-18.4
		l0.8-0.8C264,186.549,258.4,193.749,252,198.549L252,198.549z M236.8,209.749l2.4-1.6L236.8,209.749z M241.6,205.749l3.2-2.4
		L241.6,205.749z M247.2,202.549l4-3.2L247.2,202.549z M331.2,209.749l-1.6,1.6L331.2,209.749z M312.8,221.749l-0.8,0.8
		L312.8,221.749z M325.6,212.949l-4.8,3.2L325.6,212.949z M318.4,217.749l-3.2,2.4L318.4,217.749z M304.8,234.549c0-0.8,0-1.6,0-2.4
		C304.8,232.949,304.8,233.749,304.8,234.549L304.8,234.549z M305.6,231.349c0-0.8,0.8-1.6,0.8-2.4
		C306.4,229.749,306.4,230.549,305.6,231.349L305.6,231.349z M307.2,228.149c0.8-0.8,0.8-1.6,1.6-3.2
		C308,226.549,307.2,227.349,307.2,228.149L307.2,228.149z"/>
	<path style="fill:#EDAE78;" d="M115.2,233.749c0-0.8,0-1.6,0-2.4v-0.8c0-0.8,0.8-1.6,0.8-2.4v-0.8c0.8-0.8,0.8-1.6,1.6-3.2
		c0.8-0.8,1.6-2.4,3.2-3.2l0.8-0.8l3.2-2.4l3.2-2.4l1.6-0.8l4.8-3.2l0.8-0.8l5.6-3.2l2.4-1.6l3.2-2.4l3.2-2.4l1.6-0.8l4-3.2l0.8-0.8
		c6.4-4.8,11.2-11.2,15.2-18.4l0.8-0.8c0.8-1.6,0.8-2.4,1.6-4l1.6-6.4H80.8l-4,10.4c-3.2,8-8.8,14.4-15.2,19.2l-0.8,0.8l-4,3.2
		l-1.6,1.6l-3.2,2.4l-4,3.2l-2.4,1.6l-5.6,3.2v0.8l-4.8,3.2l-1.6,0.8l-3.2,2.4l-2.4,2.4l-1.6,0.8c-0.8,0.8-2.4,1.6-3.2,3.2
		c0,0.8-0.8,0.8-0.8,1.6l0,0c-2.4,3.2-3.2,7.2-2.4,11.2l0.8,7.2h94.4l-0.8-8.8v-0.8C114.4,236.149,115.2,234.549,115.2,233.749z"/>
	<path style="fill:#EDAE78;" d="M26.4,222.549l1.6-0.8l2.4-2.4l3.2-2.4l1.6-0.8l4.8-3.2l0.8-0.8l5.6-3.2l2.4-1.6l3.2-2.4l3.2-2.4
		l1.6-1.6l4-3.2l0.8-0.8c6.4-4.8,11.2-11.2,15.2-18.4l0.8-0.8c0.8-1.6,0.8-2.4,1.6-4l1.6-6.4H17.6c-4.8,0-8.8,4-8.8,8.8v44.8v25.6
		l14.4-21.6c0-0.8,0.8-0.8,0.8-1.6C24,224.149,24.8,223.349,26.4,222.549z"/>
</g>
<rect x="4" y="217.749" style="fill:#D69365;" width="374.4" height="29.6"/>
<rect x="4" y="165.749" style="fill:#F9C095;" width="374.4" height="23.2"/>
<path style="fill:#3A271E;" d="M367.2,160.949H214.4v-75.2h12c8.8,0,16-7.2,16-16v-10.4c0-8.8-7.2-16-16-16h-69.6
	c-8.8,0-16,7.2-16,16v10.4c0,8.8,7.2,16,16,16h12v75.2h-152c-9.6,0-16.8,8-16.8,16.8v57.6c0,9.6,8,16.8,16.8,16.8h152.8v42.4
	c0,0.8,0,1.6,0.8,3.2l14.4,38.4c1.6,4,6.4,6.4,10.4,4.8c2.4-0.8,4-2.4,4.8-4.8l14.4-38.4c0-0.8,0.8-1.6,0.8-3.2v-42.4H368
	c9.6,0,16.8-8,16.8-16.8v-57.6C384.8,168.949,376.8,160.949,367.2,160.949z M157.6,69.749v-10.4h69.6v10.4H157.6z M198.4,85.749
	v75.2h-13.6v-75.2H198.4z M16.8,220.149c-0.8,0.8-1.6,1.6-1.6,2.4v-44.8c0-0.8,0.8-0.8,0.8-0.8h52.8c-4.8,12-20,20.8-32,28.8
	C29.6,208.949,23.2,214.549,16.8,220.149z M112,220.149c-4,4.8-5.6,10.4-5.6,16.8H27.2c0-2.4,0-4.8,1.6-7.2c4.8-4,9.6-8,15.2-11.2
	c15.2-9.6,36-22.4,40.8-42.4h78.4c-4.8,12-20,20.8-32,28.8C124.8,208.949,117.6,214.549,112,220.149L112,220.149z M198.4,293.749
	l-6.4,16.8l-6.4-17.6v-40.8h13.6v41.6H198.4z M207.2,220.149c-4,4.8-5.6,10.4-5.6,16.8h-79.2c0-2.4,0-4.8,1.6-7.2
	c4.8-4,9.6-8,15.2-11.2c16-9.6,36-22.4,40.8-42.4h78.4c-4.8,12-20,20.8-32,28.8C220,208.949,213.6,214.549,207.2,220.149
	L207.2,220.149z M302.4,220.149c-4,4.8-5.6,10.4-5.6,16.8h-79.2c0-2.4,0-4.8,1.6-7.2c4.8-4,9.6-8,15.2-11.2
	c16-9.6,36-22.4,40.8-42.4h78.4c-4.8,12-20,20.8-32,28.8C315.2,208.949,308,214.549,302.4,220.149L302.4,220.149z M368.8,236.149
	c0,0.8-0.8,0.8-0.8,0.8h-54.4c0-2.4,0-4.8,1.6-7.2c4.8-4,9.6-8,15.2-11.2c13.6-8,30.4-19.2,38.4-34.4L368.8,236.149z"/>
<g>
</g>
<g>
</g>
<g>
</g>
<g>
</g>
<g>
</g>
<g>
</g>
<g>
</g>
<g>
</g>
<g>
</g>
<g>
</g>
<g>
</g>
<g>
</g>
<g>
</g>
<g>
</g>
<g>
</g>
</svg>
