<?xml version="1.0" encoding="iso-8859-1"?>
<!-- Generator: Adobe Illustrator 19.0.0, SVG Export Plug-In . SVG Version: 6.00 Build 0)  -->
<svg version="1.1" id="Capa_1" xmlns="http://www.w3.org/2000/svg" xmlns:xlink="http://www.w3.org/1999/xlink" x="0px" y="0px"
	 viewBox="0 0 414.4 414.4" style="enable-background:new 0 0 414.4 414.4;" xml:space="preserve">
<path style="fill:#EDAE78;" d="M129.6,102.4l18.4-0.8l1.6,5.6c2.4,7.2,4,13.6,4.8,20.8l1.6,8.8l-24.8,0.8L129.6,102.4z"/>
<ellipse style="fill:#D69365;" cx="56.8" cy="276" rx="48.8" ry="64"/>
<path style="fill:#ADB0B2;" d="M193.6,212c-13.6,0-28-4-40-10.4l-6.4-3.2l2.4-6.4c0-0.8,0.8-1.6,0.8-2.4l3.2-9.6l8,3.2
	c9.6,4,20.8,5.6,31.2,5.6c12,0,24-3.2,35.2-8.8l8-4l3.2,8.8l3.2,8.8l-4.8,4C224.8,207.2,209.6,212,193.6,212z"/>
<path style="fill:#C8CDD1;" d="M192,189.6c13.6,0,26.4-3.2,38.4-10.4l5.6-3.2l-1.6-5.6c-7.2-25.6-7.2-52.8-0.8-79.2l1.6-7.2
	l-6.4-2.4c-12-4.8-24.8-7.2-37.6-7.2c-15.2,0-29.6,4-42.4,11.2l-6.4,3.2l2.4,6.4c10.4,24.8,13.6,52,9.6,78.4l-0.8,6.4l5.6,2.4
	C169.6,187.2,180.8,189.6,192,189.6L192,189.6z"/>
<path style="fill:#DFE2E5;" d="M149.6,107.2c12.8-7.2,27.2-10.4,41.6-10.4c12.8,0,25.6,2.4,37.6,7.2l2.4,0.8
	c0.8-4.8,1.6-8.8,2.4-13.6l1.6-7.2l-6.4-2.4c-12-4.8-24.8-7.2-37.6-7.2c-15.2,0-29.6,4-42.4,11.2l-6.4,3.2l2.4,6.4
	C146.4,98.4,148,102.4,149.6,107.2z"/>
<path style="fill:#EDAE78;" d="M228.8,124c0-7.2,0.8-13.6,2.4-20.8L232,96h7.2h8.8c46.4,0,117.6-12.8,146.4-18.4l8.8-1.6l2.4,54.4
	l-10.4-2.4c-19.2-4.8-39.2-6.4-59.2-6.4c-32.8,0-65.6,4-98.4,9.6l-9.6,1.6L228.8,124z"/>
<g>
	<path style="fill:#F9C095;" d="M147.2,114.4l1.6,5.6c1.6,5.6,3.2,11.2,4,16.8h2.4l-1.6-8.8c-0.8-7.2-3.2-14.4-4.8-20.8l-1.6-5.6
		l-18.4,0.8l0.8,12.8L147.2,114.4z"/>
	<path style="fill:#F9C095;" d="M231.2,116l0.8-7.2h7.2h8.8c46.4,0,117.6-12.8,146.4-18.4l8.8-1.6l2.4,41.6h0.8L404,76l-8.8,1.6
		C366.4,83.2,295.2,96,248.8,96h-9.6H232l-0.8,7.2c-0.8,7.2-1.6,13.6-1.6,20.8v9.6l0,0C229.6,128,230.4,121.6,231.2,116z"/>
</g>
<g>
	<path style="fill:#D69365;" d="M152.8,120.8l-21.6,0.8l-0.8-19.2h-0.8l1.6,36l24.8-0.8l-1.6-8.8
		C153.6,126.4,153.6,123.2,152.8,120.8z"/>
	<path style="fill:#D69365;" d="M396,112c-19.2-4.8-39.2-6.4-59.2-6.4c-32.8,0-65.6,4-98.4,9.6l-8.8,1.6c0,2.4,0,4.8,0,7.2v9.6
		l9.6-1.6c32-6.4,64.8-9.6,97.6-9.6c20,0,39.2,1.6,59.2,6.4l10.4,2.4l-0.8-16.8L396,112z"/>
</g>
<path style="fill:#EDAE78;" d="M73.6,340l12.8-13.6c12.8-13.6,19.2-32,19.2-50.4c0.8-18.4-6.4-36.8-19.2-50.4L73.6,212H324
	c26.4,0,48.8,28.8,48.8,64s-21.6,64-48.8,64H73.6z"/>
<path style="fill:#F9C095;" d="M92.8,233.6h230.4c24,0,44,23.2,48,53.6c0.8-3.2,0.8-7.2,0.8-10.4c0-35.2-21.6-64-48.8-64H73.6
	l12.8,13.6C88.8,228,91.2,230.4,92.8,233.6z"/>
<path style="fill:#D69365;" d="M323.2,308.8H98.4c-3.2,6.4-7.2,12-12,17.6L73.6,340H324c26.4,0,48.8-28.8,48.8-64
	c0-4.8-0.8-10.4-1.6-15.2C365.6,288,346.4,308.8,323.2,308.8z"/>
<g>
	<path style="fill:#3A271E;" d="M408.8,70.4c-1.6-1.6-4-1.6-6.4-1.6c-0.8,0-105.6,21.6-160,20c0-0.8,0-0.8,0-1.6
		c1.6-3.2,0-7.2-3.2-9.6c-15.2-7.2-31.2-11.2-48-11.2c-19.2,0-37.6,5.6-53.6,16c-3.2,2.4-4.8,6.4-2.4,10.4l0.8,1.6h-6.4
		c-4.8,0-8,3.2-8,8l1.6,36c0,4.8,3.2,8,8,8l0,0l16.8-0.8c0.8,16.8-1.6,33.6-8,49.6c-1.6,3.2-0.8,6.4,1.6,8.8H56.8
		C25.6,204,0,236,0,276s25.6,72,56.8,72h266.4c31.2,0,56.8-32,56.8-72s-25.6-72-56.8-72h-80.8c1.6-1.6,3.2-2.4,4.8-4
		c3.2-2.4,4-6.4,2.4-9.6c-6.4-16-10.4-32.8-12-49.6c25.6-4.8,115.2-19.2,166.4-0.8c2.4,0.8,5.6,0.8,7.2-0.8c2.4-1.6,3.2-4,3.2-7.2
		L412,76.8C411.2,73.6,410.4,72,408.8,70.4z M138.4,130.4l-0.8-20h4c2.4,6.4,3.2,13.6,4.8,20H138.4z M232.8,191.2
		c-11.2,8-24.8,12.8-38.4,12.8c-12.8,0-24.8-3.2-36-8.8c0.8-1.6,0.8-2.4,0.8-4c11.2,4,22.4,6.4,34.4,6.4c13.6,0,26.4-3.2,38.4-9.6
		L232.8,191.2z M191.2,82.4c12,0,23.2,2.4,34.4,6.4c-6.4,27.2-6.4,56,0.8,83.2c-19.2,11.2-43.2,12-64,3.2c4-28,0.8-56.8-9.6-83.2
		C164.8,85.6,177.6,82.4,191.2,82.4z M56.8,332C34.4,332,16,307.2,16,276s18.4-56,40.8-56s40.8,24.8,40.8,56S79.2,332,56.8,332z
		 M323.2,220c22.4,0,40.8,24.8,40.8,56s-18.4,56-40.8,56H92c13.6-15.2,21.6-35.2,20.8-56c0.8-20.8-7.2-40.8-20.8-56H323.2z
		 M236.8,124c0-6.4,0.8-12.8,1.6-20C285.6,106.4,368,91.2,396,85.6l1.6,34.4C343.2,107.2,264,119.2,236.8,124z"/>
	<path style="fill:#3A271E;" d="M249.6,257.6h68c4.8,0,8-3.2,8-8s-3.2-8-8-8h-68c-4.8,0-8,3.2-8,8S245.6,257.6,249.6,257.6z"/>
	<path style="fill:#3A271E;" d="M248,292.8h-68c-4.8,0-8,3.2-8,8s3.2,8,8,8h68c4.8,0,8-3.2,8-8S252.8,292.8,248,292.8z"/>
	<path style="fill:#3A271E;" d="M133.6,249.6c0,4.8,3.2,8,8,8h68c4.8,0,8-3.2,8-8s-3.2-8-8-8h-68
		C136.8,241.6,133.6,245.6,133.6,249.6z"/>
</g>
<g>
</g>
<g>
</g>
<g>
</g>
<g>
</g>
<g>
</g>
<g>
</g>
<g>
</g>
<g>
</g>
<g>
</g>
<g>
</g>
<g>
</g>
<g>
</g>
<g>
</g>
<g>
</g>
<g>
</g>
</svg>
